<?xml version="1.0" encoding="UTF-8" standalone="no"?>
<!DOCTYPE svg PUBLIC "-//W3C//DTD SVG 1.1//EN" "http://www.w3.org/Graphics/SVG/1.1/DTD/svg11.dtd">
<svg width="100%" height="100%" viewBox="0 0 400 400" version="1.1" xmlns="http://www.w3.org/2000/svg" xmlns:xlink="http://www.w3.org/1999/xlink" xml:space="preserve" xmlns:serif="http://www.serif.com/" style="fill-rule:evenodd;clip-rule:evenodd;stroke-linecap:round;stroke-linejoin:round;stroke-miterlimit:1.5;">
    <g>
        <path d="M322.802,89.479L310.521,77.198L89.479,77.198L77.198,89.479L77.198,310.521L89.479,322.802L310.521,322.802L322.802,310.521L322.802,89.479ZM296.654,100.965L290.319,94.63L109.681,94.63L103.346,100.965L103.346,214.988L109.681,221.323L290.319,221.323L296.654,214.988L296.654,100.965Z" style="fill:rgb(240,240,240);stroke:rgb(48,48,47);stroke-width:4px;"/>
        <g>
            <g transform="matrix(0.219265,0,0,0.413181,51.4395,37.8205)">
                <path d="M309.72,91.575L297.44,85.058L76.397,85.058L64.117,91.575L64.117,324.145L76.397,330.661L297.44,330.661L309.72,324.145L309.72,91.575Z" style="fill:rgb(240,240,240);stroke:rgb(48,48,47);stroke-width:12.09px;"/>
            </g>
            <g transform="matrix(0.219265,0,0,0.413181,158.949,37.8205)">
                <path d="M309.72,91.575L297.44,85.058L76.397,85.058L64.117,91.575L64.117,324.145L76.397,330.661L297.44,330.661L309.72,324.145L309.72,91.575Z" style="fill:rgb(240,240,240);stroke:rgb(48,48,47);stroke-width:12.09px;"/>
            </g>
            <g transform="matrix(0.219265,0,0,0.413181,105.292,37.8205)">
                <path d="M309.72,91.575L297.44,85.058L76.397,85.058L64.117,91.575L64.117,324.145L76.397,330.661L297.44,330.661L309.72,324.145L309.72,91.575Z" style="fill:rgb(240,240,240);stroke:rgb(48,48,47);stroke-width:12.09px;"/>
            </g>
            <g transform="matrix(0.219265,0,0,0.413181,212.801,37.8205)">
                <path d="M309.72,91.575L297.44,85.058L76.397,85.058L64.117,91.575L64.117,324.145L76.397,330.661L297.44,330.661L309.72,324.145L309.72,91.575Z" style="fill:rgb(240,240,240);stroke:rgb(48,48,47);stroke-width:12.09px;"/>
            </g>
            <g transform="matrix(0.219265,0,0,0.413181,266.591,37.8205)">
                <path d="M309.72,91.575L297.44,85.058L76.397,85.058L64.117,91.575L64.117,324.145L76.397,330.661L297.44,330.661L309.72,324.145L309.72,91.575Z" style="fill:rgb(240,240,240);stroke:rgb(48,48,47);stroke-width:12.09px;"/>
            </g>
        </g>
        <g transform="matrix(0.874391,0,0,0.104943,36.5601,205.281)">
            <path d="M309.72,97.339L308.246,85.058L65.591,85.058L64.117,97.339L64.117,318.381L65.591,330.661L308.246,330.661L309.72,318.381L309.72,97.339Z" style="fill:rgb(240,240,240);stroke:rgb(48,48,47);stroke-width:6.42px;"/>
        </g>
    </g>
</svg>
